<svg width="237" height="172" viewBox="0 0 237 172" fill="none" xmlns="http://www.w3.org/2000/svg">
<path fill-rule="evenodd" clip-rule="evenodd" d="M44.6773 54.0855C50.9349 56.7718 58.444 53.7273 60.947 47.4591C63.6288 41.0118 60.5894 33.49 53.9743 30.9827C47.5379 28.4755 40.3864 31.52 37.7046 37.9673C35.2016 44.2355 38.2409 51.3991 44.6773 54.0855ZM16.0713 70.7409C22.5076 73.4273 30.0167 70.3827 32.5197 64.1145C35.2016 57.6673 32.1622 50.1455 25.547 47.8173C19.1106 45.1309 11.9591 48.1755 9.27731 54.6227C6.77428 60.8909 9.81367 68.0546 16.0713 70.7409ZM7.84701 102.44C14.1046 105.126 21.6137 102.082 24.1167 95.6346C26.7985 89.1873 23.7591 81.8446 17.144 79.3373C10.8864 76.6509 3.5561 79.8745 0.874279 86.1427C-1.62875 92.4109 1.41064 99.7536 7.84701 102.44ZM76.3228 64.1145C82.5803 66.8009 90.0894 63.7564 92.5925 57.3091C95.2743 50.8618 92.2349 43.5191 85.6197 41.0118C79.1834 38.3255 72.0319 41.5491 69.35 47.8173C67.0258 54.2645 70.0652 61.6073 76.3228 64.1145ZM191.462 54.0855C185.026 56.7718 177.517 53.7273 175.192 47.4591C172.511 41.0118 175.55 33.49 181.986 30.9827C188.423 28.4755 195.753 31.52 198.435 37.9673C200.759 44.2355 197.72 51.3991 191.462 54.0855ZM219.889 70.7409C213.453 73.4273 206.123 70.3827 203.62 64.1145C200.938 57.6673 203.977 50.1455 210.235 47.8173C216.671 45.1309 224.002 48.1755 226.683 54.6227C229.365 60.8909 226.147 68.0546 219.889 70.7409ZM228.292 102.44C221.856 105.126 214.347 102.082 211.844 95.6346C209.162 89.1873 212.202 81.8446 218.817 79.3373C225.253 76.6509 232.583 79.8745 235.265 86.1427C237.589 92.4109 234.55 99.7536 228.292 102.44ZM159.638 64.1145C153.202 66.8009 145.692 63.7564 143.189 57.3091C140.686 50.8618 143.547 43.5191 150.162 41.0118C156.599 38.3255 163.929 41.5491 166.611 47.8173C169.114 54.2645 166.074 61.6073 159.638 64.1145ZM124.595 31.6991L140.508 40.1164V16.6555L124.595 21.67C124.238 21.1327 123.702 20.5955 122.986 20.0582L129.423 0H106.538L112.795 20.0582C112.259 20.5955 111.723 20.9536 111.186 21.67L95.4531 16.6555V40.1164L111.186 31.6991C111.723 32.2364 112.259 32.9527 112.795 33.3109L103.856 60.8909V61.07C103.499 62.5027 103.141 63.9355 103.141 65.3682C103.141 72.7109 108.683 78.8 115.656 79.8745H116.014C116.55 79.8745 117.265 80.0536 117.802 80.0536C118.517 80.0536 119.053 80.0536 119.589 79.8745H119.947C127.099 78.8 132.641 72.5318 132.641 65.3682C132.641 63.9355 132.462 62.3236 131.926 61.07V60.8909L122.808 33.3109C123.523 32.9527 124.059 32.2364 124.595 31.6991ZM117.98 166.196C148.195 166.196 176.623 168.166 202.189 171.927C209.341 141.661 218.102 124.11 227.22 111.932L210.056 105.843C211.844 114.618 212.023 118.737 210.056 124.11C207.374 121.603 204.692 116.409 202.547 108.529L194.144 136.109C199.15 132.527 203.083 130.378 207.553 130.199C199.686 147.034 189.674 151.511 183.238 150.257C175.55 148.825 171.974 142.019 173.226 136.109C175.014 127.692 183.417 125.543 187.529 135.214C195.217 119.633 182.165 114.797 173.941 119.454C186.635 106.559 188.065 95.2764 177.696 81.6655C163.392 92.59 163.214 103.694 169.65 118.916C161.247 109.245 148.017 114.439 152.665 130.02C158.744 120.707 166.789 126.438 165.538 135.572C164.465 143.273 154.096 149.541 141.402 148.466C122.986 146.855 121.914 134.139 121.377 123.752C125.847 122.856 134.071 126.975 141.044 136.825L143.368 107.455C136.038 115.335 129.065 116.946 121.377 117.125C123.88 109.245 135.68 96.3509 135.68 96.3509H99.2076C99.2076 96.3509 110.65 109.245 113.332 117.125C105.823 116.946 99.0288 115.335 91.3409 107.455L93.844 136.825C100.817 126.975 109.041 123.035 113.332 123.752C112.795 134.139 111.723 146.675 93.4864 148.466C80.6137 149.541 70.4228 143.273 69.35 135.572C68.0985 126.617 76.144 120.707 82.044 130.02C86.8713 114.439 73.8197 109.245 65.2379 118.916C71.8531 103.694 71.6743 92.59 57.0137 81.6655C46.644 95.2764 48.0743 106.559 60.947 119.454C52.544 114.797 39.6713 119.633 47.1803 135.214C51.2925 125.364 59.8743 127.692 61.6622 136.109C62.9137 142.019 59.3379 148.825 51.4713 150.257C45.2137 151.511 35.3803 147.034 27.3349 130.199C31.8046 130.378 35.7379 132.527 40.744 136.109L32.341 108.529C30.1955 116.409 27.5137 121.424 24.6531 124.11C22.6864 118.737 23.044 114.618 24.6531 105.843L7.66822 111.932C16.6076 124.289 25.3682 141.84 32.6985 171.927C59.1591 168.166 87.7652 166.196 117.98 166.196Z" fill="black"/>
</svg>
