<svg width="650" height="185" viewBox="0 0 650 185" fill="none" xmlns="http://www.w3.org/2000/svg">
<g clip-path="url(#clip0_7_17)">
<path d="M90.497 184.946H0V59.2011L85.0022 0L170.004 59.2011V96.2254C170.004 113.61 168.144 125.371 163.123 134.46C158.281 143.229 150.921 149.011 139.936 154.297C136.995 161.721 129.74 169.842 120.678 175.763C111.796 181.567 100.96 185.517 90.497 184.942V184.946ZM13.0343 171.921H90.5015L90.9339 171.948C98.4599 172.452 106.653 169.388 113.548 164.884C121.326 159.8 127.168 153.244 128.285 148.21L128.992 145.02L131.951 143.679C141.801 139.225 148.084 134.784 151.714 128.206C155.547 121.268 156.966 111.383 156.966 96.2254V65.932L85.0022 15.8104L13.0388 65.932V171.921H13.0343Z" fill="#192B39"/>
<path d="M47.5748 58.0448C60.5055 54.5938 74.1658 54.6028 87.092 58.0628C99.5949 61.4102 111.4 67.9746 121.187 77.7515C130.974 87.5283 137.545 99.3253 140.896 111.811C144.359 124.724 144.364 138.37 140.909 151.287L139.936 154.918L136.302 155.89C123.371 159.341 109.711 159.332 96.7845 155.872C84.2816 152.524 72.4769 145.96 62.6899 136.183C52.9029 126.406 46.3317 114.609 42.9808 102.124C39.5173 89.211 39.5128 75.5648 42.9673 62.6475L43.9401 59.0166L47.5748 58.0448ZM83.7321 70.6247C74.2424 68.0826 64.2707 67.7856 54.6684 69.7338C52.7182 79.3262 53.0155 89.283 55.5602 98.7674C58.3301 109.089 63.7798 118.857 71.9094 126.978C80.0389 135.099 89.8169 140.543 100.149 143.31C109.639 145.852 119.61 146.149 129.213 144.201C131.163 134.608 130.866 124.652 128.321 115.167C125.551 104.846 120.101 95.0781 111.972 86.9569C103.842 78.8358 94.0641 73.3917 83.7321 70.6247Z" fill="#192B39"/>
<path fill-rule="evenodd" clip-rule="evenodd" d="M83.7321 70.6247C74.2424 68.0826 64.2707 67.7856 54.6684 69.7338C52.7182 79.3262 53.0155 89.283 55.5602 98.7674C58.3301 109.089 63.7798 118.857 71.9094 126.978C80.0389 135.099 89.8169 140.543 100.149 143.31C109.639 145.852 119.61 146.149 129.213 144.201C131.163 134.608 130.866 124.652 128.321 115.167C125.551 104.846 120.101 95.0781 111.972 86.9569C103.842 78.8358 94.0641 73.3917 83.7321 70.6247Z" fill="#FF6D1A"/>
<path fill-rule="evenodd" clip-rule="evenodd" d="M128.348 144.367L54.6684 69.7338C52.7182 79.3262 53.0155 89.283 55.5602 98.7675C58.3301 109.089 63.7798 118.857 71.9094 126.978C80.0389 135.099 89.8169 140.543 100.149 143.31C109.355 145.776 119.016 146.127 128.348 144.372V144.367Z" fill="#FF5C00"/>
</g>
<path d="M238.296 135V65.016H300.696V78.744H256.152V96.408H295.8V109.368H256.152V135H238.296ZM311.609 135V65.016H356.057C373.913 65.016 382.265 73.368 382.265 87.48C382.265 99.864 374.297 107.352 362.297 108.6L382.745 135H360.857L343.193 111.288H329.465V135H311.609ZM351.065 78.84H329.465V98.616H351.065C359.609 98.616 362.681 95.064 362.681 89.976V87.48C362.681 81.336 358.169 78.84 351.065 78.84ZM393.734 135V65.016H457.19V78.744H411.59V93.144H451.142V105.816H411.59V121.272H456.998V135H393.734ZM468.452 135V65.016H531.908V78.744H486.308V93.144H525.86V105.816H486.308V121.272H531.716V135H468.452Z" fill="#192B39"/>
<path d="M239.763 183.372V164.418H250.527C254.271 164.418 256.715 165.718 256.715 169.176C256.715 171.334 255.441 173.05 253.049 173.518V173.7C255.675 173.986 257.287 175.676 257.287 178.25C257.287 181.474 254.973 183.372 250.579 183.372H239.763ZM250.371 166.238H242.233V172.79H250.319C252.945 172.79 254.037 171.62 254.037 169.93V169.046C254.037 167.148 252.659 166.238 250.371 166.238ZM250.397 174.584H242.233V181.552H250.319C253.127 181.552 254.531 180.33 254.531 178.38V177.548C254.531 175.65 252.997 174.584 250.397 174.584ZM270.657 183.632C264.287 183.632 259.945 180.226 259.945 174.012V173.778C259.945 167.59 264.287 164.184 270.657 164.184C277.001 164.184 281.343 167.59 281.343 173.778V174.012C281.343 180.226 277.001 183.632 270.657 183.632ZM270.657 181.526C276.039 181.526 278.587 178.536 278.587 174.74V173.076C278.587 169.15 276.039 166.29 270.657 166.29C265.249 166.29 262.701 169.15 262.701 173.076V174.74C262.701 178.536 265.249 181.526 270.657 181.526ZM285.111 183.372V164.418H287.659V183.372H285.111ZM292.652 183.372V164.418H295.2V181.214H307.394V183.372H292.652ZM310.197 183.372V164.418H325.823V166.498H312.745V172.66H324.263V174.636H312.745V181.292H325.797V183.372H310.197ZM329.57 183.372V164.418H340.386C344.806 164.418 346.912 166.68 346.912 170.294C346.912 173.96 344.572 175.884 341.114 176.04L347.042 183.372H343.87L338.228 176.326H332.118V183.372H329.57ZM339.84 166.524H332.118V174.35H339.84C342.934 174.35 344.104 172.868 344.104 170.918V169.956C344.104 167.59 342.414 166.524 339.84 166.524ZM363.307 183.632C357.379 183.632 354.545 181.006 354.519 177.47H357.093C357.301 180.434 359.693 181.734 363.385 181.734C367.389 181.734 369.313 180.46 369.313 178.12C369.313 175.338 367.051 175 363.099 174.636C357.743 174.116 355.195 172.92 355.195 169.566C355.195 166.004 358.523 164.158 363.255 164.158C368.351 164.158 371.419 166.394 371.575 169.67H368.923C368.845 167.408 366.505 166.056 363.281 166.056C359.667 166.056 357.925 167.252 357.925 169.332C357.925 171.542 359.771 171.984 364.035 172.452C367.987 172.842 372.069 173.258 372.069 177.99C372.069 181.448 369.079 183.632 363.307 183.632ZM385.194 183.632C378.824 183.632 374.482 180.226 374.482 174.012V173.778C374.482 167.59 378.824 164.184 385.194 164.184C391.538 164.184 395.88 167.59 395.88 173.778V174.012C395.88 180.226 391.538 183.632 385.194 183.632ZM385.194 181.526C390.576 181.526 393.124 178.536 393.124 174.74V173.076C393.124 169.15 390.576 166.29 385.194 166.29C379.786 166.29 377.238 169.15 377.238 173.076V174.74C377.238 178.536 379.786 181.526 385.194 181.526ZM399.648 183.372V164.418H402.196V181.214H414.39V183.372H399.648ZM425.376 183.632C419.526 183.632 416.172 180.642 416.172 176.04V164.418H418.694V175.832C418.694 179.654 421.424 181.474 425.428 181.474C429.848 181.474 432.11 179.316 432.11 175.832V164.418H434.684V176.04C434.684 180.59 431.174 183.632 425.376 183.632ZM454.358 166.524H447.026V183.372H444.478V166.524H437.25V164.418H454.358V166.524ZM457.132 183.372V164.418H459.68V183.372H457.132ZM474.163 183.632C467.793 183.632 463.451 180.226 463.451 174.012V173.778C463.451 167.59 467.793 164.184 474.163 164.184C480.507 164.184 484.849 167.59 484.849 173.778V174.012C484.849 180.226 480.507 183.632 474.163 183.632ZM474.163 181.526C479.545 181.526 482.093 178.536 482.093 174.74V173.076C482.093 169.15 479.545 166.29 474.163 166.29C468.755 166.29 466.207 169.15 466.207 173.076V174.74C466.207 178.536 468.755 181.526 474.163 181.526ZM488.617 183.372V164.418H492.023L503.723 179.264L504.347 180.07H504.451V164.418H506.921V183.372H503.671L491.867 168.526L491.191 167.564H491.087V183.372H488.617ZM519.18 183.632C513.252 183.632 510.418 181.006 510.392 177.47H512.966C513.174 180.434 515.566 181.734 519.258 181.734C523.262 181.734 525.186 180.46 525.186 178.12C525.186 175.338 522.924 175 518.972 174.636C513.616 174.116 511.068 172.92 511.068 169.566C511.068 166.004 514.396 164.158 519.128 164.158C524.224 164.158 527.292 166.394 527.448 169.67H524.796C524.718 167.408 522.378 166.056 519.154 166.056C515.54 166.056 513.798 167.252 513.798 169.332C513.798 171.542 515.644 171.984 519.908 172.452C523.86 172.842 527.942 173.258 527.942 177.99C527.942 181.448 524.952 183.632 519.18 183.632Z" fill="#192B39"/>
<defs>
<clipPath id="clip0_7_17">
<rect width="170" height="185" fill="white"/>
</clipPath>
</defs>
</svg>
