<svg width="650" height="185" viewBox="0 0 650 185" fill="none" xmlns="http://www.w3.org/2000/svg">
<g clip-path="url(#clip0_7_17)">
<path d="M90.497 184.946H0V59.2011L85.0022 0L170.004 59.2011V96.2254C170.004 113.61 168.144 125.371 163.123 134.46C158.281 143.229 150.921 149.011 139.936 154.297C136.995 161.721 129.74 169.842 120.678 175.763C111.796 181.567 100.96 185.517 90.497 184.942V184.946ZM13.0343 171.921H90.5015L90.9339 171.948C98.4599 172.452 106.653 169.388 113.548 164.884C121.326 159.8 127.168 153.244 128.285 148.21L128.992 145.02L131.951 143.679C141.801 139.225 148.084 134.784 151.714 128.206C155.547 121.268 156.966 111.383 156.966 96.2254V65.932L85.0022 15.8104L13.0388 65.932V171.921H13.0343Z" fill="#192B39"/>
<path d="M47.5748 58.0448C60.5055 54.5938 74.1658 54.6028 87.092 58.0628C99.5949 61.4102 111.4 67.9746 121.187 77.7515C130.974 87.5283 137.545 99.3253 140.896 111.811C144.359 124.724 144.364 138.37 140.909 151.287L139.936 154.918L136.302 155.89C123.371 159.341 109.711 159.332 96.7845 155.872C84.2816 152.524 72.4769 145.96 62.6899 136.183C52.9029 126.406 46.3317 114.609 42.9808 102.124C39.5173 89.211 39.5128 75.5648 42.9673 62.6475L43.9401 59.0166L47.5748 58.0448ZM83.7321 70.6247C74.2424 68.0826 64.2707 67.7856 54.6684 69.7338C52.7182 79.3262 53.0155 89.283 55.5602 98.7674C58.3301 109.089 63.7798 118.857 71.9094 126.978C80.0389 135.099 89.8169 140.543 100.149 143.31C109.639 145.852 119.61 146.149 129.213 144.201C131.163 134.608 130.866 124.652 128.321 115.167C125.551 104.846 120.101 95.0781 111.972 86.9569C103.842 78.8358 94.0641 73.3917 83.7321 70.6247Z" fill="#192B39"/>
<path fill-rule="evenodd" clip-rule="evenodd" d="M83.7321 70.6247C74.2424 68.0826 64.2707 67.7856 54.6684 69.7338C52.7182 79.3262 53.0155 89.283 55.5602 98.7674C58.3301 109.089 63.7798 118.857 71.9094 126.978C80.0389 135.099 89.8169 140.543 100.149 143.31C109.639 145.852 119.61 146.149 129.213 144.201C131.163 134.608 130.866 124.652 128.321 115.167C125.551 104.846 120.101 95.0781 111.972 86.9569C103.842 78.8358 94.0641 73.3917 83.7321 70.6247Z" fill="#00A676"/>
<path fill-rule="evenodd" clip-rule="evenodd" d="M128.348 144.367L54.6684 69.7338C52.7182 79.3262 53.0155 89.283 55.5602 98.7675C58.3301 109.089 63.7798 118.857 71.9094 126.978C80.0389 135.099 89.8169 140.543 100.149 143.31C109.355 145.776 119.016 146.127 128.348 144.372V144.367Z" fill="#00966B"/>
</g>
<path d="M238.296 114V44.016H300.696V57.744H256.152V75.408H295.8V88.368H256.152V114H238.296ZM311.609 114V44.016H356.057C373.913 44.016 382.265 52.368 382.265 66.48C382.265 78.864 374.297 86.352 362.297 87.6L382.745 114H360.857L343.193 90.288H329.465V114H311.609ZM351.065 57.84H329.465V77.616H351.065C359.609 77.616 362.681 74.064 362.681 68.976V66.48C362.681 60.336 358.169 57.84 351.065 57.84ZM393.734 114V44.016H457.19V57.744H411.59V72.144H451.142V84.816H411.59V100.272H456.998V114H393.734ZM468.452 114V44.016H531.908V57.744H486.308V72.144H525.86V84.816H486.308V100.272H531.716V114H468.452Z" fill="#192B39"/>
<path d="M239.763 162.372V143.418H250.527C254.271 143.418 256.715 144.718 256.715 148.176C256.715 150.334 255.441 152.05 253.049 152.518V152.7C255.675 152.986 257.287 154.676 257.287 157.25C257.287 160.474 254.973 162.372 250.579 162.372H239.763ZM250.371 145.238H242.233V151.79H250.319C252.945 151.79 254.037 150.62 254.037 148.93V148.046C254.037 146.148 252.659 145.238 250.371 145.238ZM250.397 153.584H242.233V160.552H250.319C253.127 160.552 254.531 159.33 254.531 157.38V156.548C254.531 154.65 252.997 153.584 250.397 153.584ZM270.657 162.632C264.287 162.632 259.945 159.226 259.945 153.012V152.778C259.945 146.59 264.287 143.184 270.657 143.184C277.001 143.184 281.343 146.59 281.343 152.778V153.012C281.343 159.226 277.001 162.632 270.657 162.632ZM270.657 160.526C276.039 160.526 278.587 157.536 278.587 153.74V152.076C278.587 148.15 276.039 145.29 270.657 145.29C265.249 145.29 262.701 148.15 262.701 152.076V153.74C262.701 157.536 265.249 160.526 270.657 160.526ZM285.111 162.372V143.418H287.659V162.372H285.111ZM292.652 162.372V143.418H295.2V160.214H307.394V162.372H292.652ZM310.197 162.372V143.418H325.823V145.498H312.745V151.66H324.263V153.636H312.745V160.292H325.797V162.372H310.197ZM329.57 162.372V143.418H340.386C344.806 143.418 346.912 145.68 346.912 149.294C346.912 152.96 344.572 154.884 341.114 155.04L347.042 162.372H343.87L338.228 155.326H332.118V162.372H329.57ZM339.84 145.524H332.118V153.35H339.84C342.934 153.35 344.104 151.868 344.104 149.918V148.956C344.104 146.59 342.414 145.524 339.84 145.524ZM363.307 162.632C357.379 162.632 354.545 160.006 354.519 156.47H357.093C357.301 159.434 359.693 160.734 363.385 160.734C367.389 160.734 369.313 159.46 369.313 157.12C369.313 154.338 367.051 154 363.099 153.636C357.743 153.116 355.195 151.92 355.195 148.566C355.195 145.004 358.523 143.158 363.255 143.158C368.351 143.158 371.419 145.394 371.575 148.67H368.923C368.845 146.408 366.505 145.056 363.281 145.056C359.667 145.056 357.925 146.252 357.925 148.332C357.925 150.542 359.771 150.984 364.035 151.452C367.987 151.842 372.069 152.258 372.069 156.99C372.069 160.448 369.079 162.632 363.307 162.632ZM385.194 162.632C378.824 162.632 374.482 159.226 374.482 153.012V152.778C374.482 146.59 378.824 143.184 385.194 143.184C391.538 143.184 395.88 146.59 395.88 152.778V153.012C395.88 159.226 391.538 162.632 385.194 162.632ZM385.194 160.526C390.576 160.526 393.124 157.536 393.124 153.74V152.076C393.124 148.15 390.576 145.29 385.194 145.29C379.786 145.29 377.238 148.15 377.238 152.076V153.74C377.238 157.536 379.786 160.526 385.194 160.526ZM399.648 162.372V143.418H402.196V160.214H414.39V162.372H399.648ZM425.376 162.632C419.526 162.632 416.172 159.642 416.172 155.04V143.418H418.694V154.832C418.694 158.654 421.424 160.474 425.428 160.474C429.848 160.474 432.11 158.316 432.11 154.832V143.418H434.684V155.04C434.684 159.59 431.174 162.632 425.376 162.632ZM454.358 145.524H447.026V162.372H444.478V145.524H437.25V143.418H454.358V145.524ZM457.132 162.372V143.418H459.68V162.372H457.132ZM474.163 162.632C467.793 162.632 463.451 159.226 463.451 153.012V152.778C463.451 146.59 467.793 143.184 474.163 143.184C480.507 143.184 484.849 146.59 484.849 152.778V153.012C484.849 159.226 480.507 162.632 474.163 162.632ZM474.163 160.526C479.545 160.526 482.093 157.536 482.093 153.74V152.076C482.093 148.15 479.545 145.29 474.163 145.29C468.755 145.29 466.207 148.15 466.207 152.076V153.74C466.207 157.536 468.755 160.526 474.163 160.526ZM488.617 162.372V143.418H492.023L503.723 158.264L504.347 159.07H504.451V143.418H506.921V162.372H503.671L491.867 147.526L491.191 146.564H491.087V162.372H488.617ZM519.18 162.632C513.252 162.632 510.418 160.006 510.392 156.47H512.966C513.174 159.434 515.566 160.734 519.258 160.734C523.262 160.734 525.186 159.46 525.186 157.12C525.186 154.338 522.924 154 518.972 153.636C513.616 153.116 511.068 151.92 511.068 148.566C511.068 145.004 514.396 143.158 519.128 143.158C524.224 143.158 527.292 145.394 527.448 148.67H524.796C524.718 146.408 522.378 145.056 519.154 145.056C515.54 145.056 513.798 146.252 513.798 148.332C513.798 150.542 515.644 150.984 519.908 151.452C523.86 151.842 527.942 152.258 527.942 156.99C527.942 160.448 524.952 162.632 519.18 162.632Z" fill="#192B39"/>
<defs>
<clipPath id="clip0_7_17">
<rect width="170" height="185" fill="white"/>
</clipPath>
</defs>
</svg>
